STARTFONT 2.1
FONT -Adobe-Helvetica-Medium-R-Narrow--33-240-100-100-P-140-ISO8859-1
SIZE 24 100 100
FONTBOUNDINGBOX 31 34 -5 -6

STARTPROPERTIES 26
_DEC_DEVICE_FONTNAMES "PS=Helvetica-Narrow"
FONTNAME_REGISTRY ""
FAMILY_NAME "Helvetica"
FOUNDRY "Adobe"
WEIGHT_NAME "Medium"
SLANT "R"
SETWIDTH_NAME "Narrow"
ADD_STYLE_NAME ""
PIXEL_SIZE 33
POINT_SIZE 240
RESOLUTION_X 100
RESOLUTION_Y 100
SPACING "P"
AVERAGE_WIDTH 140
CHARSET_REGISTRY "ISO8859"
CHARSET_ENCODING "1"
CHARSET_COLLECTIONS "ASCII ISO8859-1 ADOBE-STANDARD"
FULL_NAME "Helvetica Narrow"
COPYRIGHT "Copyright (c) 1991 Adobe Systems, Inc."
CAP_HEIGHT 24
X_HEIGHT 17
WEIGHT 10
QUAD_WIDTH 16
DEFAULT_CHAR 0
FONT_DESCENT 6
FONT_ASCENT 28
ENDPROPERTIES

CHARS 190

STARTCHAR space
ENCODING 32
SWIDTH 228 0
DWIDTH 7 0
BBX 1 1 0 0
BITMAP
00
ENDCHAR

STARTCHAR exclam
ENCODING 33
SWIDTH 228 0
DWIDTH 7 0
BBX 2 24 3 0
BITMAP
C0
C0
C0
C0
C0
C0
C0
C0
C0
C0
C0
C0
C0
C0
C0
C0
C0
C0
C0
00
00
C0
C0
C0
ENDCHAR

STARTCHAR quotedbl
ENCODING 34
SWIDTH 291 0
DWIDTH 8 0
BBX 6 8 1 15
BITMAP
CC
CC
CC
CC
CC
CC
CC
CC
ENDCHAR

STARTCHAR numbersign
ENCODING 35
SWIDTH 456 0
DWIDTH 15 0
BBX 15 23 0 0
BITMAP
0718
0618
0618
0618
0630
0630
0630
7FFE
7FFE
7FFE
0C30
0C60
0C60
0C60
FFFC
FFFC
FFFC
18C0
18C0
18C0
30C0
30C0
31C0
ENDCHAR

STARTCHAR dollar
ENCODING 36
SWIDTH 456 0
DWIDTH 14 0
BBX 12 28 1 -3
BITMAP
0600
0600
1F80
3FC0
76E0
6660
C660
C670
C600
C600
E600
7E00
3F00
1FC0
07E0
0670
0630
0630
C630
C630
C630
E660
76E0
3FC0
1F80
0600
0600
0600
ENDCHAR

STARTCHAR percent
ENCODING 37
SWIDTH 729 0
DWIDTH 24 0
BBX 22 23 1 0
BITMAP
000180
1C0100
3F0300
630200
C18600
C18600
C18400
C18C00
618800
7F1800
3E1000
1C3000
0020C0
0061F0
0063F8
00C618
00C60C
00860C
01860C
01060C
030318
0203F0
0600E0
ENDCHAR

STARTCHAR ampersand
ENCODING 38
SWIDTH 547 0
DWIDTH 18 0
BBX 16 23 1 0
BITMAP
0780
1FC0
18E0
3060
3060
3060
3860
18C0
1FC0
0F00
1F00
3F0C
738C
61CC
C0D8
C0F8
C078
C038
E078
E0FC
7FCE
3F87
0E00
ENDCHAR

STARTCHAR quoteright
ENCODING 39
SWIDTH 182 0
DWIDTH 6 0
BBX 2 8 2 15
BITMAP
C0
C0
C0
C0
40
40
C0
80
ENDCHAR

STARTCHAR parenleft
ENCODING 40
SWIDTH 273 0
DWIDTH 9 0
BBX 6 28 2 -6
BITMAP
04
08
18
10
30
20
60
60
60
40
C0
C0
C0
C0
C0
C0
C0
C0
C0
40
60
60
60
20
30
10
18
0C
ENDCHAR

STARTCHAR parenright
ENCODING 41
SWIDTH 273 0
DWIDTH 9 0
BBX 6 28 1 -6
BITMAP
80
40
60
20
30
10
18
18
18
08
0C
0C
0C
0C
0C
0C
0C
0C
0C
18
18
18
18
30
30
20
60
C0
ENDCHAR

STARTCHAR asterisk
ENCODING 42
SWIDTH 319 0
DWIDTH 10 0
BBX 8 10 1 14
BITMAP
18
18
18
DB
FF
18
3C
24
66
24
ENDCHAR

STARTCHAR plus
ENCODING 43
SWIDTH 479 0
DWIDTH 14 0
BBX 12 16 1 -1
BITMAP
0600
0600
0600
0600
0600
0600
0600
FFF0
FFF0
0600
0600
0600
0600
0600
0600
0600
ENDCHAR

STARTCHAR comma
ENCODING 44
SWIDTH 228 0
DWIDTH 7 0
BBX 3 8 2 -5
BITMAP
E0
E0
E0
20
20
40
C0
80
ENDCHAR

STARTCHAR minus
ENCODING 45
SWIDTH 479 0
DWIDTH 15 0
BBX 13 2 1 6
BITMAP
FFF8
FFF8
ENDCHAR

STARTCHAR period
ENCODING 46
SWIDTH 228 0
DWIDTH 7 0
BBX 3 3 2 0
BITMAP
E0
E0
E0
ENDCHAR

STARTCHAR slash
ENCODING 47
SWIDTH 228 0
DWIDTH 8 0
BBX 8 23 0 0
BITMAP
01
03
02
02
02
04
04
04
0C
08
08
08
18
10
10
10
20
20
20
60
40
40
C0
ENDCHAR

STARTCHAR zero
ENCODING 48
SWIDTH 456 0
DWIDTH 14 0
BBX 12 23 1 0
BITMAP
0F00
1F80
3FC0
70E0
6060
6060
E070
C030
C030
C030
C030
C030
C030
C030
C030
C030
C070
6060
6060
70E0
3FC0
1F80
0F00
ENDCHAR

STARTCHAR one
ENCODING 49
SWIDTH 456 0
DWIDTH 14 0
BBX 6 23 3 0
BITMAP
0C
0C
0C
1C
7C
FC
FC
0C
0C
0C
0C
0C
0C
0C
0C
0C
0C
0C
0C
0C
0C
0C
0C
ENDCHAR

STARTCHAR two
ENCODING 50
SWIDTH 456 0
DWIDTH 15 0
BBX 13 22 1 0
BITMAP
0FC0
1FE0
3870
3038
7018
6018
6018
6018
0038
0030
0070
01E0
03C0
0F00
1C00
3800
3000
6000
6000
7FF8
7FF8
FFF8
ENDCHAR

STARTCHAR three
ENCODING 51
SWIDTH 456 0
DWIDTH 14 0
BBX 12 23 1 0
BITMAP
0F00
3FC0
3FC0
70E0
6060
6070
E070
0060
0060
00E0
07C0
07C0
00E0
0070
0030
0030
C030
C030
E070
60E0
7FE0
3FC0
0F00
ENDCHAR

STARTCHAR four
ENCODING 52
SWIDTH 456 0
DWIDTH 15 0
BBX 13 23 1 0
BITMAP
00C0
00C0
01C0
01C0
03C0
06C0
06C0
0CC0
0CC0
18C0
38C0
30C0
60C0
60C0
C0C0
FFF8
FFF8
FFF8
00C0
00C0
00C0
00C0
00C0
ENDCHAR

STARTCHAR five
ENCODING 53
SWIDTH 456 0
DWIDTH 14 0
BBX 12 23 1 0
BITMAP
3FE0
3FE0
7FE0
6000
6000
6000
6000
6000
6F00
7FC0
7FE0
E0E0
C070
0030
0030
0030
0030
C030
E070
E0E0
7FC0
3F80
0F00
ENDCHAR

STARTCHAR six
ENCODING 54
SWIDTH 456 0
DWIDTH 14 0
BBX 12 23 1 0
BITMAP
0700
1FC0
3FC0
30E0
7060
6070
6000
C000
C000
CF80
DFC0
F8E0
E060
E070
C030
C030
C030
C030
6070
6060
38E0
3FC0
0F80
ENDCHAR

STARTCHAR seven
ENCODING 55
SWIDTH 456 0
DWIDTH 15 0
BBX 13 23 1 0
BITMAP
FFF8
FFF8
FFF8
0030
0030
0060
0040
00C0
0080
0180
0180
0300
0300
0600
0600
0600
0C00
0C00
0C00
0C00
1C00
1800
1800
ENDCHAR

STARTCHAR eight
ENCODING 56
SWIDTH 456 0
DWIDTH 14 0
BBX 12 22 1 0
BITMAP
1F80
3FC0
70E0
6060
6060
6070
6060
6060
70C0
3FC0
3FC0
70E0
6060
C030
C030
C030
C030
E070
70E0
7FE0
3FC0
0F00
ENDCHAR

STARTCHAR nine
ENCODING 57
SWIDTH 456 0
DWIDTH 14 0
BBX 12 23 1 0
BITMAP
0F00
1F80
3FC0
70E0
6060
C060
C020
C030
C030
C030
E070
60F0
71F0
3FB0
1F30
0030
0030
8060
E060
60E0
7FC0
3F80
1E00
ENDCHAR

STARTCHAR colon
ENCODING 58
SWIDTH 228 0
DWIDTH 8 0
BBX 3 17 3 0
BITMAP
E0
E0
E0
00
00
00
00
00
00
00
00
00
00
00
E0
E0
E0
ENDCHAR

STARTCHAR semicolon
ENCODING 59
SWIDTH 228 0
DWIDTH 8 0
BBX 3 21 3 -5
BITMAP
E0
E0
E0
00
00
00
00
00
00
00
00
00
00
E0
E0
E0
20
20
40
C0
80
ENDCHAR

STARTCHAR less
ENCODING 60
SWIDTH 479 0
DWIDTH 15 0
BBX 13 16 1 -1
BITMAP
0008
0018
0078
01F0
07C0
1F00
7C00
F000
E000
7800
1E00
0780
01E0
0078
0018
0008
ENDCHAR

STARTCHAR equal
ENCODING 61
SWIDTH 479 0
DWIDTH 15 0
BBX 13 7 1 4
BITMAP
FFF8
FFF8
0000
0000
0000
FFF8
FFF8
ENDCHAR

STARTCHAR greater
ENCODING 62
SWIDTH 479 0
DWIDTH 15 0
BBX 13 16 1 -1
BITMAP
8000
C000
F000
3C00
1F00
07C0
01F0
0078
0078
01F0
07C0
1F00
7C00
F000
C000
8000
ENDCHAR

STARTCHAR question
ENCODING 63
SWIDTH 456 0
DWIDTH 14 0
BBX 11 24 2 0
BITMAP
1F80
3FC0
71C0
60E0
E060
C060
C060
C060
0060
00C0
01C0
0180
0300
0700
0600
0600
0600
0600
0000
0000
0000
0600
0600
0600
ENDCHAR

STARTCHAR at
ENCODING 64
SWIDTH 832 0
DWIDTH 27 0
BBX 24 28 1 -4
BITMAP
007F00
01FFC0
03C1F0
070078
0E001C
1C000C
38000E
301C06
707E66
60E3C3
61C1C3
C181C3
C18183
C38183
C30183
C30182
C30306
C30306
C3870C
E1CF1C
61FBF8
70F1E0
300000
3C0000
1E0000
078180
03FFC0
00FF00
ENDCHAR

STARTCHAR A
ENCODING 65
SWIDTH 547 0
DWIDTH 17 0
BBX 17 24 0 0
BITMAP
01C000
01C000
03E000
03E000
036000
036000
077000
063000
063000
0E3800
0C3800
0C1800
1C1800
1C1C00
1C1C00
1FFC00
3FFE00
380E00
300E00
700600
700700
600700
600300
E00380
ENDCHAR

STARTCHAR B
ENCODING 66
SWIDTH 547 0
DWIDTH 17 0
BBX 14 24 2 0
BITMAP
FFC0
FFE0
FFF0
C078
C038
C018
C018
C018
C018
C038
C030
FFF0
FFE0
FFF8
C018
C01C
C00C
C00C
C00C
C01C
C018
FFF8
FFF0
FFE0
ENDCHAR

STARTCHAR C
ENCODING 67
SWIDTH 592 0
DWIDTH 17 0
BBX 15 24 1 0
BITMAP
0380
0FE0
1FF0
3838
701C
600C
600C
E00E
C000
C000
C000
C000
C000
C000
C000
C006
E006
600E
600C
701C
3838
1FF0
0FE0
0380
ENDCHAR

STARTCHAR D
ENCODING 68
SWIDTH 592 0
DWIDTH 17 0
BBX 14 24 2 0
BITMAP
FF80
FFC0
FFE0
C070
C038
C018
C018
C01C
C00C
C00C
C00C
C00C
C00C
C00C
C00C
C00C
C01C
C018
C018
C038
C070
FFE0
FFC0
FF80
ENDCHAR

STARTCHAR E
ENCODING 69
SWIDTH 547 0
DWIDTH 17 0
BBX 14 24 2 0
BITMAP
FFF8
FFF8
FFF8
C000
C000
C000
C000
C000
C000
C000
C000
FFF8
FFF8
FFF8
C000
C000
C000
C000
C000
C000
C000
FFFC
FFFC
FFFC
ENDCHAR

STARTCHAR F
ENCODING 70
SWIDTH 501 0
DWIDTH 16 0
BBX 13 24 2 0
BITMAP
FFF8
FFF8
FFF8
C000
C000
C000
C000
C000
C000
C000
C000
FFE0
FFE0
FFE0
C000
C000
C000
C000
C000
C000
C000
C000
C000
C000
ENDCHAR

STARTCHAR G
ENCODING 71
SWIDTH 638 0
DWIDTH 21 0
BBX 18 24 1 0
BITMAP
01F000
07FC00
1FFE00
3C0700
380380
700180
6001C0
600000
E00000
C00000
C00000
C03FC0
C03FC0
C03FC0
C000C0
E000C0
E000C0
6001C0
7001C0
3803C0
3C07C0
1FFEC0
07F8C0
01E000
ENDCHAR

STARTCHAR H
ENCODING 72
SWIDTH 592 0
DWIDTH 19 0
BBX 15 24 2 0
BITMAP
C006
C006
C006
C006
C006
C006
C006
C006
C006
C006
C006
FFFE
FFFE
FFFE
C006
C006
C006
C006
C006
C006
C006
C006
C006
C006
ENDCHAR

STARTCHAR I
ENCODING 73
SWIDTH 228 0
DWIDTH 7 0
BBX 2 24 3 0
BITMAP
C0
C0
C0
C0
C0
C0
C0
C0
C0
C0
C0
C0
C0
C0
C0
C0
C0
C0
C0
C0
C0
C0
C0
C0
ENDCHAR

STARTCHAR J
ENCODING 74
SWIDTH 410 0
DWIDTH 12 0
BBX 10 24 0 0
BITMAP
00C0
00C0
00C0
00C0
00C0
00C0
00C0
00C0
00C0
00C0
00C0
00C0
00C0
00C0
00C0
00C0
C0C0
C0C0
C0C0
C1C0
E1C0
7F80
7F00
1E00
ENDCHAR

STARTCHAR K
ENCODING 75
SWIDTH 547 0
DWIDTH 17 0
BBX 15 24 2 0
BITMAP
C01E
C01C
C038
C070
C0E0
C0E0
C1C0
C380
C700
CE00
DE00
FF00
FB00
F380
E1C0
C1C0
C0E0
C060
C070
C030
C038
C018
C01C
C00E
ENDCHAR

STARTCHAR L
ENCODING 76
SWIDTH 456 0
DWIDTH 15 0
BBX 12 24 2 0
BITMAP
C000
C000
C000
C000
C000
C000
C000
C000
C000
C000
C000
C000
C000
C000
C000
C000
C000
C000
C000
C000
C000
FFF0
FFF0
FFF0
ENDCHAR

STARTCHAR M
ENCODING 77
SWIDTH 683 0
DWIDTH 23 0
BBX 19 24 2 0
BITMAP
F001E0
F001E0
F001E0
F803E0
F803E0
F803E0
FC03E0
EC06E0
EC06E0
EC06E0
E60CE0
E60CE0
E60CE0
E60CE0
E318E0
E318E0
E318E0
E1B0E0
E1B0E0
E1B0E0
E1F0E0
E0E0E0
E0E0E0
E0E0E0
ENDCHAR

STARTCHAR N
ENCODING 78
SWIDTH 592 0
DWIDTH 19 0
BBX 15 24 2 0
BITMAP
E006
E006
F006
F006
F806
D806
DC06
CC06
CE06
C706
C706
C386
C386
C1C6
C1C6
C0E6
C066
C076
C036
C03E
C01E
C01E
C00E
C00E
ENDCHAR

STARTCHAR O
ENCODING 79
SWIDTH 638 0
DWIDTH 20 0
BBX 18 24 1 0
BITMAP
01E000
07F800
1FFE00
3C0F00
380700
700380
600180
E001C0
E001C0
C000C0
C000C0
C000C0
C000C0
C000C0
C000C0
E001C0
E001C0
600180
700380
380700
3C0F00
1FFE00
07F800
01E000
ENDCHAR

STARTCHAR P
ENCODING 80
SWIDTH 547 0
DWIDTH 16 0
BBX 13 24 2 0
BITMAP
FFC0
FFE0
FFF0
C078
C038
C018
C018
C018
C018
C038
C038
FFF0
FFE0
FFC0
C000
C000
C000
C000
C000
C000
C000
C000
C000
C000
ENDCHAR

STARTCHAR Q
ENCODING 81
SWIDTH 638 0
DWIDTH 20 0
BBX 18 25 1 -1
BITMAP
01E000
07F800
1FFE00
3C0F00
380700
700380
600180
E001C0
E001C0
C000C0
C000C0
C000C0
C000C0
C000C0
C000C0
E001C0
E001C0
601180
703B80
381F00
3C0F00
1FFF00
07FB80
01E1C0
000080
ENDCHAR

STARTCHAR R
ENCODING 82
SWIDTH 592 0
DWIDTH 18 0
BBX 15 24 2 0
BITMAP
FFE0
FFF0
FFF8
C01C
C01C
C00C
C00C
C00C
C00C
C01C
C018
FFF0
FFF0
FFF8
C018
C01C
C01C
C01C
C01C
C01C
C01C
C00C
C00C
C00E
ENDCHAR

STARTCHAR S
ENCODING 83
SWIDTH 547 0
DWIDTH 18 0
BBX 16 24 1 0
BITMAP
07C0
1FF0
3FF8
381C
700E
6006
6006
6000
7000
7800
3F80
1FF0
03FC
003E
000E
0007
E007
E007
6006
700E
781E
3FFC
1FF8
07E0
ENDCHAR

STARTCHAR T
ENCODING 84
SWIDTH 501 0
DWIDTH 17 0
BBX 16 24 1 0
BITMAP
FFFF
FFFF
FFFF
0180
0180
0180
0180
0180
0180
0180
0180
0180
0180
0180
0180
0180
0180
0180
0180
0180
0180
0180
0180
0180
ENDCHAR

STARTCHAR U
ENCODING 85
SWIDTH 592 0
DWIDTH 19 0
BBX 15 24 2 0
BITMAP
C006
C006
C006
C006
C006
C006
C006
C006
C006
C006
C006
C006
C006
C006
C006
C006
C006
C006
E00E
E00E
701C
3FF8
1FF0
07C0
ENDCHAR

STARTCHAR V
ENCODING 86
SWIDTH 547 0
DWIDTH 19 0
BBX 17 24 1 0
BITMAP
E00380
600300
700700
700600
300600
300600
380E00
180C00
180C00
1C0C00
1C1800
0C1800
0C1800
0E3800
063000
063000
063000
077000
036000
036000
03E000
01C000
01C000
01C000
ENDCHAR

STARTCHAR W
ENCODING 87
SWIDTH 774 0
DWIDTH 26 0
BBX 25 24 1 0
BITMAP
E01C0380
601C0300
601C0300
703E0700
703E0700
30360700
30360600
30770600
38670600
38630E00
18630C00
18630C00
18C38C00
18C18C00
1CC19C00
0CC19800
0DC1D800
0D80D800
0D80D800
0F80F800
0780F000
07007000
07007000
07007000
ENDCHAR

STARTCHAR X
ENCODING 88
SWIDTH 547 0
DWIDTH 18 0
BBX 17 24 1 0
BITMAP
700700
300700
380E00
180C00
1C1C00
0C1800
0E3800
073000
077000
03E000
03E000
01C000
01C000
03E000
07E000
077000
0E3800
0E3800
1C1C00
1C1C00
380E00
300600
700700
E00780
ENDCHAR

STARTCHAR Y
ENCODING 89
SWIDTH 547 0
DWIDTH 18 0
BBX 18 24 0 0
BITMAP
F003C0
700380
300700
380700
180E00
1C0E00
0C0C00
0E1C00
061800
073800
033000
03F000
01E000
01E000
00C000
00C000
00C000
00C000
00C000
00C000
00C000
00C000
00C000
00C000
ENDCHAR

STARTCHAR Z
ENCODING 90
SWIDTH 501 0
DWIDTH 16 0
BBX 14 24 1 0
BITMAP
FFFC
7FFC
FFFC
001C
0038
0038
0070
00E0
00E0
01C0
0180
0380
0700
0700
0E00
1C00
1C00
3800
3000
7000
E000
FFFC
FFFC
FFFC
ENDCHAR

STARTCHAR bracketleft
ENCODING 91
SWIDTH 228 0
DWIDTH 8 0
BBX 5 29 2 -6
BITMAP
F8
F8
C0
C0
C0
C0
C0
C0
C0
C0
C0
C0
C0
C0
C0
C0
C0
C0
C0
C0
C0
C0
C0
C0
C0
C0
C0
F8
F8
ENDCHAR

STARTCHAR backslash
ENCODING 92
SWIDTH 228 0
DWIDTH 8 0
BBX 8 24 0 0
BITMAP
80
80
C0
40
40
60
20
20
20
30
10
10
10
18
08
08
08
0C
04
04
04
06
02
03
ENDCHAR

STARTCHAR bracketright
ENCODING 93
SWIDTH 228 0
DWIDTH 8 0
BBX 5 29 1 -6
BITMAP
F8
F8
18
18
18
18
18
18
18
18
18
18
18
18
18
18
18
18
18
18
18
18
18
18
18
18
18
F8
F8
ENDCHAR

STARTCHAR asciicircum
ENCODING 94
SWIDTH 385 0
DWIDTH 12 0
BBX 10 13 1 10
BITMAP
0C00
0C00
1E00
1E00
1200
3300
3300
2100
6180
6180
4080
C0C0
8000
ENDCHAR

STARTCHAR underscore
ENCODING 95
SWIDTH 456 0
DWIDTH 14 0
BBX 14 2 0 -6
BITMAP
FFFC
FFFC
ENDCHAR

STARTCHAR quoteleft
ENCODING 96
SWIDTH 182 0
DWIDTH 6 0
BBX 2 7 2 15
BITMAP
40
C0
80
80
C0
C0
C0
ENDCHAR

STARTCHAR a
ENCODING 97
SWIDTH 456 0
DWIDTH 15 0
BBX 13 17 1 0
BITMAP
1F80
3FC0
70E0
6060
E060
0060
0060
07E0
3FE0
7860
E060
C060
C060
C0E0
E1E0
7F78
3E38
ENDCHAR

STARTCHAR b
ENCODING 98
SWIDTH 456 0
DWIDTH 13 0
BBX 11 24 1 0
BITMAP
C000
C000
C000
C000
C000
C000
C000
CF00
DF80
FFC0
E0C0
E0E0
C060
C060
C060
C060
C060
C060
C060
E0C0
E1C0
FF80
DF80
0E00
ENDCHAR

STARTCHAR c
ENCODING 99
SWIDTH 410 0
DWIDTH 13 0
BBX 11 17 1 0
BITMAP
0F00
3FC0
71C0
60E0
6060
C060
C000
C000
C000
C000
C020
C060
6060
70C0
7FC0
3F80
0E00
ENDCHAR

STARTCHAR d
ENCODING 100
SWIDTH 456 0
DWIDTH 15 0
BBX 12 24 1 0
BITMAP
0030
0030
0030
0030
0030
0030
0030
0F30
3FB0
7FF0
70F0
E070
E070
C030
C030
C030
C030
C030
E030
6070
70F0
3FF0
3FB0
0F00
ENDCHAR

STARTCHAR e
ENCODING 101
SWIDTH 456 0
DWIDTH 14 0
BBX 12 17 1 0
BITMAP
0F00
3FC0
70E0
6060
E070
C030
C030
FFF0
FFF0
C000
C000
C030
E070
6060
70E0
3FC0
0F80
ENDCHAR

STARTCHAR f
ENCODING 102
SWIDTH 228 0
DWIDTH 7 0
BBX 6 24 0 0
BITMAP
1C
3C
38
30
30
30
30
FC
FC
30
30
30
30
30
30
30
30
30
30
30
30
30
30
30
ENDCHAR

STARTCHAR g
ENCODING 103
SWIDTH 456 0
DWIDTH 15 0
BBX 12 22 1 -6
BITMAP
0F30
3FB0
7FF0
70F0
6070
E030
C030
C030
C030
C030
C030
E070
6070
70F0
3FB0
1F30
0030
E030
6060
70E0
3FC0
1F00
ENDCHAR

STARTCHAR h
ENCODING 104
SWIDTH 456 0
DWIDTH 15 0
BBX 11 24 2 0
BITMAP
C000
C000
C000
C000
C000
C000
C000
CF80
DFC0
F0E0
E060
C060
C060
C060
C060
C060
C060
C060
C060
C060
C060
C060
C060
C060
ENDCHAR

STARTCHAR i
ENCODING 105
SWIDTH 182 0
DWIDTH 6 0
BBX 2 24 2 0
BITMAP
C0
C0
C0
00
00
00
00
C0
C0
C0
C0
C0
C0
C0
C0
C0
C0
C0
C0
C0
C0
C0
C0
C0
ENDCHAR

STARTCHAR j
ENCODING 106
SWIDTH 182 0
DWIDTH 6 0
BBX 4 28 0 -6
BITMAP
30
30
30
00
00
00
30
30
30
30
30
30
30
30
30
30
30
30
30
30
30
30
30
30
30
70
F0
E0
ENDCHAR

STARTCHAR k
ENCODING 107
SWIDTH 410 0
DWIDTH 14 0
BBX 12 24 2 0
BITMAP
C000
C000
C000
C000
C000
C000
C000
C1E0
C180
C300
C700
CE00
DC00
FC00
FE00
F600
E700
C300
C380
C180
C1C0
C0C0
C0E0
C070
ENDCHAR

STARTCHAR l
ENCODING 108
SWIDTH 182 0
DWIDTH 6 0
BBX 2 24 2 0
BITMAP
C0
C0
C0
C0
C0
C0
C0
C0
C0
C0
C0
C0
C0
C0
C0
C0
C0
C0
C0
C0
C0
C0
C0
C0
ENDCHAR

STARTCHAR m
ENCODING 109
SWIDTH 683 0
DWIDTH 22 0
BBX 18 17 2 0
BITMAP
CF0F00
DF9F80
F1F1C0
E0E0C0
C0C0C0
C0C0C0
C0C0C0
C0C0C0
C0C0C0
C0C0C0
C0C0C0
C0C0C0
C0C0C0
C0C0C0
C0C0C0
C0C0C0
C0C0C0
ENDCHAR

STARTCHAR n
ENCODING 110
SWIDTH 456 0
DWIDTH 15 0
BBX 11 17 2 0
BITMAP
CF80
DFC0
F1E0
E0E0
E060
C060
C060
C060
C060
C060
C060
C060
C060
C060
C060
C060
C060
ENDCHAR

STARTCHAR o
ENCODING 111
SWIDTH 456 0
DWIDTH 14 0
BBX 12 17 1 0
BITMAP
0F00
3FC0
3FC0
70E0
6060
E070
C030
C030
C030
C030
C030
E070
6060
70E0
3FC0
3FC0
0F00
ENDCHAR

STARTCHAR p
ENCODING 112
SWIDTH 456 0
DWIDTH 13 0
BBX 11 22 1 -6
BITMAP
DF00
FF80
F1C0
E0C0
C0E0
C060
C060
C060
C060
C060
C060
E0E0
E0C0
FFC0
DF80
CE00
C000
C000
C000
C000
C000
C000
ENDCHAR

STARTCHAR q
ENCODING 113
SWIDTH 456 0
DWIDTH 15 0
BBX 12 22 1 -6
BITMAP
1F30
3FB0
70F0
6070
E070
C030
C030
C030
C030
C030
E030
E070
70F0
7FF0
3FB0
0E30
0030
0030
0030
0030
0030
0030
ENDCHAR

STARTCHAR r
ENCODING 114
SWIDTH 273 0
DWIDTH 10 0
BBX 7 17 2 0
BITMAP
CE
DE
DE
F0
E0
C0
C0
C0
C0
C0
C0
C0
C0
C0
C0
C0
C0
ENDCHAR

STARTCHAR s
ENCODING 115
SWIDTH 410 0
DWIDTH 14 0
BBX 12 17 1 0
BITMAP
1F80
3FC0
78E0
6060
6070
6000
7000
3F00
1FC0
03E0
0070
0030
E030
6030
7060
3FE0
1F80
ENDCHAR

STARTCHAR t
ENCODING 116
SWIDTH 228 0
DWIDTH 7 0
BBX 6 21 0 0
BITMAP
30
30
30
30
FC
FC
30
30
30
30
30
30
30
30
30
30
30
30
3C
3C
1C
ENDCHAR

STARTCHAR u
ENCODING 117
SWIDTH 456 0
DWIDTH 15 0
BBX 11 17 2 0
BITMAP
C060
C060
C060
C060
C060
C060
C060
C060
C060
C060
C060
C060
C0E0
E1E0
7FE0
7F60
3C60
ENDCHAR

STARTCHAR v
ENCODING 118
SWIDTH 410 0
DWIDTH 13 0
BBX 13 17 0 0
BITMAP
E038
E030
6070
6060
6060
3060
30C0
30C0
38C0
1980
1980
1980
0F00
0F00
0F00
0600
0600
ENDCHAR

STARTCHAR w
ENCODING 119
SWIDTH 592 0
DWIDTH 19 0
BBX 19 17 0 0
BITMAP
E0E0E0
60E0C0
60E0C0
60F0C0
71F1C0
31B180
31B180
31B180
313980
1B1B00
1B1B00
1B1B00
1B1B00
0E0E00
0E0E00
0E0E00
0E0E00
ENDCHAR

STARTCHAR x
ENCODING 120
SWIDTH 410 0
DWIDTH 13 0
BBX 12 17 0 0
BITMAP
E070
6060
30C0
38C0
1980
1F80
0F00
0F00
0600
0F00
0F00
1980
3980
30C0
70E0
6060
E070
ENDCHAR

STARTCHAR y
ENCODING 121
SWIDTH 410 0
DWIDTH 14 0
BBX 12 22 1 -6
BITMAP
E030
6030
6060
7060
3060
30E0
30C0
38C0
19C0
1980
1D80
0F80
0F00
0F00
0F00
0600
0600
0E00
0C00
5C00
7800
7000
ENDCHAR

STARTCHAR z
ENCODING 122
SWIDTH 410 0
DWIDTH 13 0
BBX 11 17 1 0
BITMAP
FFE0
FFE0
FFC0
00C0
0180
0380
0700
0600
0E00
1C00
1800
3000
7000
6000
FFE0
FFE0
FFE0
ENDCHAR

STARTCHAR braceleft
ENCODING 123
SWIDTH 274 0
DWIDTH 9 0
BBX 6 28 1 -6
BITMAP
1C
1C
30
30
30
30
30
30
30
30
30
30
60
C0
C0
60
30
30
30
30
30
30
30
30
30
30
1C
1C
ENDCHAR

STARTCHAR bar
ENCODING 124
SWIDTH 213 0
DWIDTH 7 0
BBX 2 28 2 -6
BITMAP
C0
C0
C0
C0
C0
C0
C0
C0
C0
C0
C0
C0
C0
C0
C0
C0
C0
C0
C0
C0
C0
C0
C0
C0
C0
C0
C0
C0
ENDCHAR

STARTCHAR braceright
ENCODING 125
SWIDTH 274 0
DWIDTH 10 0
BBX 7 29 1 -6
BITMAP
E0
70
18
18
18
18
18
18
18
18
18
18
18
0C
06
06
0C
18
18
18
18
18
18
18
18
18
18
70
70
ENDCHAR

STARTCHAR asciitilde
ENCODING 126
SWIDTH 479 0
DWIDTH 15 0
BBX 11 5 2 9
BITMAP
7020
FC20
8E60
87C0
01C0
ENDCHAR

STARTCHAR exclamdown
ENCODING 161
SWIDTH 273 0
DWIDTH 8 0
BBX 2 22 3 -6
BITMAP
C0
C0
C0
00
00
C0
C0
C0
C0
C0
C0
C0
C0
C0
C0
C0
C0
C0
C0
C0
C0
C0
ENDCHAR

STARTCHAR cent
ENCODING 162
SWIDTH 456 0
DWIDTH 13 0
BBX 11 24 1 -4
BITMAP
0180
0100
0100
0F00
3F80
33C0
62C0
6260
C260
C400
C400
C400
C400
C400
C860
E860
68C0
79C0
3F80
1F00
1000
1000
1000
2000
ENDCHAR

STARTCHAR sterling
ENCODING 163
SWIDTH 456 0
DWIDTH 15 0
BBX 13 23 1 0
BITMAP
0380
0FE0
1FF0
3830
3038
7018
7018
7008
3000
3000
3800
FF80
FF80
0C00
0C00
0C00
0C00
1800
1000
3708
7FF8
7FF8
20F0
ENDCHAR

STARTCHAR currency
ENCODING 164
SWIDTH 456 0
DWIDTH 15 0
BBX 11 14 2 4
BITMAP
8040
CEC0
FFE0
7FC0
6180
C0C0
C0C0
C0C0
C0C0
6180
7FC0
FFC0
CCC0
8040
ENDCHAR

STARTCHAR yen
ENCODING 165
SWIDTH 456 0
DWIDTH 14 0
BBX 14 24 0 0
BITMAP
8004
C00C
6018
6018
3030
3030
1860
1860
0840
0CC0
0480
0780
7FF8
7FF8
0300
0300
0300
7FF8
7FF8
0300
0300
0300
0300
0300
ENDCHAR

STARTCHAR brokenbar
ENCODING 166
SWIDTH 213 0
DWIDTH 8 0
BBX 2 30 3 -6
BITMAP
C0
C0
C0
C0
C0
C0
C0
C0
C0
C0
C0
C0
00
00
00
00
00
00
C0
C0
C0
C0
C0
C0
C0
C0
C0
C0
C0
C0
ENDCHAR

STARTCHAR section
ENCODING 167
SWIDTH 456 0
DWIDTH 14 0
BBX 12 29 1 -6
BITMAP
0F80
1FC0
39C0
30E0
3060
3060
3000
3C00
3E00
6700
E3C0
C1E0
C0E0
C070
E030
7030
7830
3C30
1E60
0FC0
03C0
01C0
00C0
60C0
60C0
60C0
31C0
3F80
1F00
ENDCHAR

STARTCHAR dieresis
ENCODING 168
SWIDTH 273 0
DWIDTH 9 0
BBX 8 3 0 20
BITMAP
E7
E7
E7
ENDCHAR

STARTCHAR copyright
ENCODING 169
SWIDTH 604 0
DWIDTH 20 0
BBX 20 24 0 0
BITMAP
01F800
070E00
0C0300
180180
3000C0
20F040
41FC20
430420
C20630
860210
840010
840010
840010
840010
860210
860210
430420
418C20
60F860
200040
100080
080300
060E00
01F800
ENDCHAR

STARTCHAR ordfeminine
ENCODING 170
SWIDTH 303 0
DWIDTH 10 0
BBX 8 15 1 9
BITMAP
3C
46
C2
02
06
7E
C2
82
82
CF
7B
00
00
FF
FF
ENDCHAR

STARTCHAR guillemotleft
ENCODING 171
SWIDTH 456 0
DWIDTH 15 0
BBX 9 11 3 3
BITMAP
1080
3080
7180
E300
C600
8600
C600
E700
7180
3080
1080
ENDCHAR

STARTCHAR logicalnot
ENCODING 172
SWIDTH 479 0
DWIDTH 15 0
BBX 13 8 1 3
BITMAP
FFF8
FFF8
0018
0018
0018
0018
0018
0018
ENDCHAR

STARTCHAR hyphen
ENCODING 173
SWIDTH 273 0
DWIDTH 8 0
BBX 6 2 1 8
BITMAP
FC
FC
ENDCHAR

STARTCHAR registered
ENCODING 174
SWIDTH 604 0
DWIDTH 20 0
BBX 20 24 0 0
BITMAP
01F800
070E00
0C0300
180180
3000C0
200040
43FC60
420620
420220
820210
820210
820610
83FC10
823010
821010
821810
420820
420420
620660
200240
100080
180300
060E00
03F800
ENDCHAR

STARTCHAR macron
ENCODING 175
SWIDTH 273 0
DWIDTH 9 0
BBX 7 2 1 20
BITMAP
FE
FE
ENDCHAR

STARTCHAR degree
ENCODING 176
SWIDTH 328 0
DWIDTH 10 0
BBX 8 10 1 13
BITMAP
3C
66
42
81
81
81
81
42
66
3C
ENDCHAR

STARTCHAR plusminus
ENCODING 177
SWIDTH 479 0
DWIDTH 16 0
BBX 14 20 1 0
BITMAP
0300
0300
0300
0300
0300
0300
0300
7FF8
7FF8
0300
0300
0300
0300
0300
0300
0300
0000
0000
FFFC
FFFC
ENDCHAR

STARTCHAR twosuperior
ENCODING 178
SWIDTH 273 0
DWIDTH 9 0
BBX 9 13 0 9
BITMAP
1E00
2300
6100
4180
0180
0100
0600
0C00
3000
6000
4000
7F80
FF80
ENDCHAR

STARTCHAR threesuperior
ENCODING 179
SWIDTH 273 0
DWIDTH 8 0
BBX 8 15 0 8
BITMAP
38
7C
C4
86
86
04
3C
06
02
03
83
83
C6
7E
38
ENDCHAR

STARTCHAR acute
ENCODING 180
SWIDTH 273 0
DWIDTH 9 0
BBX 6 5 2 19
BITMAP
1C
38
30
60
C0
ENDCHAR

STARTCHAR mu
ENCODING 181
SWIDTH 456 0
DWIDTH 15 0
BBX 11 23 2 -6
BITMAP
C060
C060
C060
C060
C060
C060
C060
C060
C060
C060
C060
C060
C0E0
E1E0
FFE0
FF60
FC60
C000
C000
C000
C000
C000
C000
ENDCHAR

STARTCHAR paragraph
ENCODING 182
SWIDTH 440 0
DWIDTH 13 0
BBX 12 29 1 -5
BITMAP
0FF0
3FF0
7E60
7E60
FE60
FE60
FE60
FE60
FE60
FE60
FE60
7E60
7E60
3E60
1E60
0660
0660
0660
0660
0660
0660
0660
0660
0660
0660
0660
0660
0660
0660
ENDCHAR

STARTCHAR periodcentered
ENCODING 183
SWIDTH 228 0
DWIDTH 7 0
BBX 3 3 2 10
BITMAP
E0
E0
E0
ENDCHAR

STARTCHAR cedilla
ENCODING 184
SWIDTH 273 0
DWIDTH 9 0
BBX 6 6 1 -6
BITMAP
10
10
3C
0C
CC
78
ENDCHAR

STARTCHAR onesuperior
ENCODING 185
SWIDTH 273 0
DWIDTH 9 0
BBX 4 14 2 9
BITMAP
10
10
70
F0
10
10
10
10
10
10
10
10
10
10
ENDCHAR

STARTCHAR ordmasculine
ENCODING 186
SWIDTH 299 0
DWIDTH 9 0
BBX 7 15 1 9
BITMAP
38
7C
C6
82
82
82
82
82
C6
7C
38
00
00
FE
FE
ENDCHAR

STARTCHAR guillemotright
ENCODING 187
SWIDTH 456 0
DWIDTH 16 0
BBX 10 11 3 3
BITMAP
8200
8200
C300
6180
30C0
30C0
30C0
6180
C300
8200
8200
ENDCHAR

STARTCHAR onequarter
ENCODING 188
SWIDTH 684 0
DWIDTH 22 0
BBX 20 24 1 0
BITMAP
000180
100100
100200
300200
F00400
100400
100800
100800
101000
101000
102040
1020C0
1040C0
1041C0
108140
008240
010640
010440
020840
020FF0
040FF0
040040
080040
180040
ENDCHAR

STARTCHAR onehalf
ENCODING 189
SWIDTH 684 0
DWIDTH 22 0
BBX 20 24 1 0
BITMAP
000300
100200
100600
300400
F00C00
100800
101800
101000
103000
102000
106000
1043C0
10C460
108C20
118830
010030
020020
0200C0
040180
040600
080C00
080800
100FF0
300FF0
ENDCHAR

STARTCHAR threequarters
ENCODING 190
SWIDTH 684 0
DWIDTH 22 0
BBX 20 23 1 0
BITMAP
3800C0
7E0080
C20100
830100
830200
060200
1C0400
060400
020800
030840
8310C0
8210C0
462140
7C2140
004240
004640
008440
018840
010FF0
030FF0
020040
060040
040040
ENDCHAR

STARTCHAR questiondown
ENCODING 191
SWIDTH 501 0
DWIDTH 16 0
BBX 11 23 3 -6
BITMAP
0C00
0C00
0C00
0000
0000
0000
0C00
0C00
0C00
0C00
1C00
3800
3000
6000
E000
C000
C060
C060
C0E0
C0E0
61C0
7F80
3F00
ENDCHAR

STARTCHAR Agrave
ENCODING 192
SWIDTH 547 0
DWIDTH 17 0
BBX 17 28 0 0
BITMAP
070000
038000
018000
00C000
006000
000000
01C000
01C000
03E000
03E000
036000
077000
063000
063000
0E3800
0C3800
0C1800
1C1800
181C00
1FFC00
1FFC00
380E00
300E00
300600
700700
600700
600300
E00380
ENDCHAR

STARTCHAR Aacute
ENCODING 193
SWIDTH 547 0
DWIDTH 17 0
BBX 17 28 0 0
BITMAP
007000
00E000
00C000
018000
030000
000000
01C000
01C000
03E000
03E000
036000
077000
063000
063000
0E3800
0C3800
0C1800
1C1800
181C00
1FFC00
1FFC00
380E00
300E00
300600
700700
600700
600300
E00380
ENDCHAR

STARTCHAR Acircumflex
ENCODING 194
SWIDTH 547 0
DWIDTH 17 0
BBX 17 28 0 0
BITMAP
01C000
01C000
036000
022000
063000
000000
01C000
01C000
03E000
03E000
036000
077000
063000
063000
0E3800
0C3800
0C1800
1C1800
181C00
1FFC00
1FFC00
380E00
300E00
300600
700700
600700
600300
E00380
ENDCHAR

STARTCHAR Atilde
ENCODING 195
SWIDTH 547 0
DWIDTH 17 0
BBX 17 28 0 0
BITMAP
030800
07D800
0DF000
086000
000000
000000
01C000
01C000
03E000
03E000
036000
077000
063000
063000
0E3800
0C3800
0C1800
1C1800
181C00
1FFC00
1FFC00
380E00
300E00
300600
700700
600700
600300
E00380
ENDCHAR

STARTCHAR Adieresis
ENCODING 196
SWIDTH 547 0
DWIDTH 17 0
BBX 17 27 0 0
BITMAP
0E7000
0E7000
0E7000
000000
000000
01C000
01C000
03E000
03E000
036000
077000
063000
063000
0E3800
0C3800
0C1800
1C1800
181C00
1FFC00
1FFC00
380E00
300E00
300600
700700
600700
600300
E00380
ENDCHAR

STARTCHAR Aring
ENCODING 197
SWIDTH 547 0
DWIDTH 17 0
BBX 17 28 0 0
BITMAP
01C000
022000
022000
022000
01C000
000000
01C000
01C000
03E000
03E000
036000
077000
063000
063000
0E3800
0C3800
0C1800
1C1800
181C00
1FFC00
1FFC00
380E00
300E00
300600
700700
600700
600300
E00380
ENDCHAR

STARTCHAR AE
ENCODING 198
SWIDTH 820 0
DWIDTH 26 0
BBX 25 24 0 0
BITMAP
00FFFF00
01FFFF00
01FFFF00
018C0000
038C0000
030C0000
030C0000
070C0000
060C0000
060C0000
0E0C0000
0C0FFF00
0C0FFF00
1C0FFF00
1FFC0000
1FFC0000
3FFC0000
300C0000
300C0000
700C0000
600C0000
600FFF80
E00FFF80
E00FFF80
ENDCHAR

STARTCHAR Ccedilla
ENCODING 199
SWIDTH 592 0
DWIDTH 17 0
BBX 15 30 1 -6
BITMAP
0380
0FE0
1FF0
3838
701C
600C
600C
E00E
C000
C000
C000
C000
C000
C000
C000
C006
E006
600E
600C
701C
3838
1FF0
0FE0
0380
0100
0100
03C0
00C0
0CC0
0780
ENDCHAR

STARTCHAR Egrave
ENCODING 200
SWIDTH 547 0
DWIDTH 17 0
BBX 14 28 2 0
BITMAP
1C00
0E00
0600
0300
0180
0000
FFF8
FFF8
C000
C000
C000
C000
C000
C000
C000
C000
FFF8
FFF8
C000
C000
C000
C000
C000
C000
C000
C000
FFFC
FFFC
ENDCHAR

STARTCHAR Eacute
ENCODING 201
SWIDTH 547 0
DWIDTH 17 0
BBX 14 28 2 0
BITMAP
00E0
01C0
0180
0300
0600
0000
FFF8
FFF8
C000
C000
C000
C000
C000
C000
C000
C000
FFF8
FFF8
C000
C000
C000
C000
C000
C000
C000
C000
FFFC
FFFC
ENDCHAR

STARTCHAR Ecircumflex
ENCODING 202
SWIDTH 547 0
DWIDTH 17 0
BBX 14 28 2 0
BITMAP
0700
0700
0D80
0880
18C0
0000
FFF8
FFF8
C000
C000
C000
C000
C000
C000
C000
C000
FFF8
FFF8
C000
C000
C000
C000
C000
C000
C000
C000
FFFC
FFFC
ENDCHAR

STARTCHAR Edieresis
ENCODING 203
SWIDTH 547 0
DWIDTH 17 0
BBX 14 27 2 0
BITMAP
39C0
39C0
39C0
0000
0000
FFF8
FFF8
C000
C000
C000
C000
C000
C000
C000
C000
FFF8
FFF8
C000
C000
C000
C000
C000
C000
C000
C000
FFFC
FFFC
ENDCHAR

STARTCHAR Igrave
ENCODING 204
SWIDTH 228 0
DWIDTH 7 0
BBX 6 28 0 0
BITMAP
E0
70
30
18
0C
00
18
18
18
18
18
18
18
18
18
18
18
18
18
18
18
18
18
18
18
18
18
18
ENDCHAR

STARTCHAR Iacute
ENCODING 205
SWIDTH 228 0
DWIDTH 7 0
BBX 6 28 2 0
BITMAP
1C
38
30
60
C0
00
60
60
60
60
60
60
60
60
60
60
60
60
60
60
60
60
60
60
60
60
60
60
ENDCHAR

STARTCHAR Icircumflex
ENCODING 206
SWIDTH 228 0
DWIDTH 7 0
BBX 7 28 0 0
BITMAP
38
38
6C
44
C6
00
18
18
18
18
18
18
18
18
18
18
18
18
18
18
18
18
18
18
18
18
18
18
ENDCHAR

STARTCHAR Idieresis
ENCODING 207
SWIDTH 228 0
DWIDTH 7 0
BBX 8 27 0 0
BITMAP
E7
E7
E7
00
00
18
18
18
18
18
18
18
18
18
18
18
18
18
18
18
18
18
18
18
18
18
18
ENDCHAR

STARTCHAR Eth
ENCODING 208
SWIDTH 592 0
DWIDTH 18 0
BBX 17 24 0 0
BITMAP
1FF000
1FF800
1FFC00
180E00
180700
180300
180300
180380
180180
180180
180180
FF8180
FF8180
180180
180180
180180
180180
180300
180300
180700
180E00
1FFC00
1FF800
1FF000
ENDCHAR

STARTCHAR Ntilde
ENCODING 209
SWIDTH 592 0
DWIDTH 19 0
BBX 15 28 2 0
BITMAP
0308
07D8
0DF0
0860
0000
0000
F006
F006
F806
D806
DC06
CC06
CE06
C606
C706
C306
C386
C186
C1C6
C0C6
C0E6
C066
C076
C036
C03E
C01E
C01E
C00E
ENDCHAR

STARTCHAR Ograve
ENCODING 210
SWIDTH 638 0
DWIDTH 20 0
BBX 18 28 1 0
BITMAP
070000
038000
018000
00C000
006000
000000
03F000
0FFC00
1E1E00
380700
300300
700380
600180
E001C0
C000C0
C000C0
C000C0
C000C0
C000C0
C000C0
E001C0
600180
700380
300300
380700
1E1E00
0FFC00
03F000
ENDCHAR

STARTCHAR Oacute
ENCODING 211
SWIDTH 638 0
DWIDTH 20 0
BBX 18 28 1 0
BITMAP
003800
007000
006000
00C000
018000
000000
03F000
0FFC00
1E1E00
380700
300300
700380
600180
E001C0
C000C0
C000C0
C000C0
C000C0
C000C0
C000C0
E001C0
600180
700380
300300
380700
1E1E00
0FFC00
03F000
ENDCHAR

STARTCHAR Ocircumflex
ENCODING 212
SWIDTH 638 0
DWIDTH 20 0
BBX 18 28 1 0
BITMAP
01C000
01C000
036000
022000
063000
000000
03F000
0FFC00
1E1E00
380700
300300
700380
600180
E001C0
C000C0
C000C0
C000C0
C000C0
C000C0
C000C0
E001C0
600180
700380
300300
380700
1E1E00
0FFC00
03F000
ENDCHAR

STARTCHAR Otilde
ENCODING 213
SWIDTH 638 0
DWIDTH 20 0
BBX 18 28 1 0
BITMAP
018400
03EC00
06F800
043000
000000
000000
03F000
0FFC00
1E1E00
380700
300300
700380
600180
E001C0
C000C0
C000C0
C000C0
C000C0
C000C0
C000C0
E001C0
600180
700380
300300
380700
1E1E00
0FFC00
03F000
ENDCHAR

STARTCHAR Odieresis
ENCODING 214
SWIDTH 638 0
DWIDTH 20 0
BBX 18 27 1 0
BITMAP
073800
073800
073800
000000
000000
03F000
0FFC00
1E1E00
380700
300300
700380
600180
E001C0
C000C0
C000C0
C000C0
C000C0
C000C0
C000C0
E001C0
600180
700380
300300
380700
1E1E00
0FFC00
03F000
ENDCHAR

STARTCHAR multiply
ENCODING 215
SWIDTH 479 0
DWIDTH 13 0
BBX 11 16 1 0
BITMAP
8020
8020
C060
60C0
71C0
3B80
1F00
0E00
0E00
1F00
3B80
71C0
60C0
C060
8020
8020
ENDCHAR

STARTCHAR Oslash
ENCODING 216
SWIDTH 638 0
DWIDTH 20 0
BBX 18 24 1 0
BITMAP
01E080
07F880
1FFF00
3C0F00
380700
700780
600980
E019C0
E011C0
C020C0
C040C0
C080C0
C180C0
C100C0
C200C0
E401C0
EC01C0
780180
700380
380700
7C0F00
4FFE00
87F800
81E000
ENDCHAR

STARTCHAR Ugrave
ENCODING 217
SWIDTH 592 0
DWIDTH 19 0
BBX 15 28 2 0
BITMAP
0E00
0700
0300
0180
00C0
0000
C006
C006
C006
C006
C006
C006
C006
C006
C006
C006
C006
C006
C006
C006
C006
C006
C006
E00E
600C
783C
3FF8
0FE0
ENDCHAR

STARTCHAR Uacute
ENCODING 218
SWIDTH 592 0
DWIDTH 19 0
BBX 15 28 2 0
BITMAP
00E0
01C0
0180
0300
0600
0000
C006
C006
C006
C006
C006
C006
C006
C006
C006
C006
C006
C006
C006
C006
C006
C006
C006
E00E
600C
783C
3FF8
0FE0
ENDCHAR

STARTCHAR Ucircumflex
ENCODING 219
SWIDTH 592 0
DWIDTH 19 0
BBX 15 28 2 0
BITMAP
0380
0380
06C0
0440
0C60
0000
C006
C006
C006
C006
C006
C006
C006
C006
C006
C006
C006
C006
C006
C006
C006
C006
C006
E00E
600C
783C
3FF8
0FE0
ENDCHAR

STARTCHAR Udieresis
ENCODING 220
SWIDTH 592 0
DWIDTH 19 0
BBX 15 27 2 0
BITMAP
1CE0
1CE0
1CE0
0000
0000
C006
C006
C006
C006
C006
C006
C006
C006
C006
C006
C006
C006
C006
C006
C006
C006
C006
E00E
600C
783C
3FF8
0FE0
ENDCHAR

STARTCHAR Yacute
ENCODING 221
SWIDTH 547 0
DWIDTH 18 0
BBX 18 28 0 0
BITMAP
003800
007000
006000
00C000
018000
000000
F003C0
700380
380700
380700
180600
1C0E00
0C0C00
0E1C00
061800
073800
033000
03F000
01E000
01E000
00C000
00C000
00C000
00C000
00C000
00C000
00C000
00C000
ENDCHAR

STARTCHAR Thorn
ENCODING 222
SWIDTH 547 0
DWIDTH 17 0
BBX 14 24 2 0
BITMAP
C000
C000
C000
C000
FF80
FFE0
FFF0
C038
C018
C018
C01C
C01C
C018
C018
C038
FFF0
FFE0
FFC0
C000
C000
C000
C000
C000
C000
ENDCHAR

STARTCHAR germandbls
ENCODING 223
SWIDTH 501 0
DWIDTH 16 0
BBX 12 24 3 0
BITMAP
0F00
3F80
7FC0
E0E0
E0E0
C060
C060
C060
C0E0
C1E0
C7C0
C780
C7E0
C0E0
C070
C030
C030
C030
C030
C070
C0E0
C7E0
C780
0700
ENDCHAR

STARTCHAR agrave
ENCODING 224
SWIDTH 456 0
DWIDTH 15 0
BBX 13 24 1 0
BITMAP
3800
1C00
0C00
0600
0300
0000
0000
1F80
3FC0
70E0
6060
E060
0060
0060
07E0
3FE0
7860
E060
C060
C060
C0E0
E1E0
7F78
3E38
ENDCHAR

STARTCHAR aacute
ENCODING 225
SWIDTH 456 0
DWIDTH 15 0
BBX 13 24 1 0
BITMAP
01C0
0380
0300
0600
0C00
0000
0000
1F80
3FC0
70E0
6060
E060
0060
0060
07E0
3FE0
7860
E060
C060
C060
C0E0
E1E0
7F78
3E38
ENDCHAR

STARTCHAR acircumflex
ENCODING 226
SWIDTH 456 0
DWIDTH 15 0
BBX 13 24 1 0
BITMAP
0E00
0E00
1B00
1100
3180
0000
0000
1F80
3FC0
70E0
6060
E060
0060
0060
07E0
3FE0
7860
E060
C060
C060
C0E0
E1E0
7F78
3E38
ENDCHAR

STARTCHAR atilde
ENCODING 227
SWIDTH 456 0
DWIDTH 15 0
BBX 13 23 1 0
BITMAP
0C20
1F60
37C0
2180
0000
0000
1F80
3FC0
70E0
6060
E060
0060
0060
07E0
3FE0
7860
E060
C060
C060
C0E0
E1E0
7F78
3E38
ENDCHAR

STARTCHAR adieresis
ENCODING 228
SWIDTH 456 0
DWIDTH 15 0
BBX 13 23 1 0
BITMAP
39C0
39C0
39C0
0000
0000
0000
1F80
3FC0
70E0
6060
E060
0060
0060
07E0
3FE0
7860
E060
C060
C060
C0E0
E1E0
7F78
3E38
ENDCHAR

STARTCHAR aring
ENCODING 229
SWIDTH 456 0
DWIDTH 15 0
BBX 13 24 1 0
BITMAP
0E00
1100
1100
1100
0E00
0000
0000
1F80
3FC0
70E0
6060
E060
0060
0060
07E0
3FE0
7860
E060
C060
C060
C0E0
E1E0
7F78
3E38
ENDCHAR

STARTCHAR ae
ENCODING 230
SWIDTH 729 0
DWIDTH 23 0
BBX 21 17 1 0
BITMAP
1F8780
3FCFE0
70F870
607030
E06018
006018
01E018
3FFFF8
7E7FF8
E06000
E06000
C06018
C0F018
C0F030
E3B870
7F1FE0
3E0FC0
ENDCHAR

STARTCHAR ccedilla
ENCODING 231
SWIDTH 410 0
DWIDTH 13 0
BBX 11 23 1 -6
BITMAP
0F00
3FC0
71C0
60E0
6060
C060
C000
C000
C000
C000
C020
C060
6060
70C0
7FC0
3F80
0E00
0400
0400
0F00
0300
3300
1E00
ENDCHAR

STARTCHAR egrave
ENCODING 232
SWIDTH 456 0
DWIDTH 14 0
BBX 12 24 1 0
BITMAP
3800
1C00
0C00
0600
0300
0000
0000
0F00
3FC0
70E0
6060
E070
C030
C030
FFF0
FFF0
C000
C000
C030
E070
6060
70E0
3FC0
0F80
ENDCHAR

STARTCHAR eacute
ENCODING 233
SWIDTH 456 0
DWIDTH 14 0
BBX 12 24 1 0
BITMAP
01C0
0380
0300
0600
0C00
0000
0000
0F00
3FC0
70E0
6060
E070
C030
C030
FFF0
FFF0
C000
C000
C030
E070
6060
70E0
3FC0
0F80
ENDCHAR

STARTCHAR ecircumflex
ENCODING 234
SWIDTH 456 0
DWIDTH 14 0
BBX 12 24 1 0
BITMAP
0E00
0E00
1B00
1100
3180
0000
0000
0F00
3FC0
70E0
6060
E070
C030
C030
FFF0
FFF0
C000
C000
C030
E070
6060
70E0
3FC0
0F80
ENDCHAR

STARTCHAR edieresis
ENCODING 235
SWIDTH 456 0
DWIDTH 14 0
BBX 12 23 1 0
BITMAP
39C0
39C0
39C0
0000
0000
0000
0F00
3FC0
70E0
6060
E070
C030
C030
FFF0
FFF0
C000
C000
C030
E070
6060
70E0
3FC0
0F80
ENDCHAR

STARTCHAR igrave
ENCODING 236
SWIDTH 228 0
DWIDTH 7 0
BBX 6 24 -1 0
BITMAP
E0
70
30
18
0C
00
00
18
18
18
18
18
18
18
18
18
18
18
18
18
18
18
18
18
ENDCHAR

STARTCHAR iacute
ENCODING 237
SWIDTH 228 0
DWIDTH 7 0
BBX 6 24 1 0
BITMAP
1C
38
30
60
C0
00
00
60
60
60
60
60
60
60
60
60
60
60
60
60
60
60
60
60
ENDCHAR

STARTCHAR icircumflex
ENCODING 238
SWIDTH 228 0
DWIDTH 7 0
BBX 7 24 -1 0
BITMAP
38
38
6C
44
C6
00
00
18
18
18
18
18
18
18
18
18
18
18
18
18
18
18
18
18
ENDCHAR

STARTCHAR idieresis
ENCODING 239
SWIDTH 228 0
DWIDTH 7 0
BBX 8 23 -1 0
BITMAP
E7
E7
E7
00
00
00
18
18
18
18
18
18
18
18
18
18
18
18
18
18
18
18
18
ENDCHAR

STARTCHAR eth
ENCODING 240
SWIDTH 456 0
DWIDTH 14 0
BBX 12 24 1 0
BITMAP
2080
7980
1F00
1E00
3F00
6700
0380
0FC0
3FC0
3FE0
70E0
6060
C070
C030
C030
C030
C030
C030
E070
6060
70E0
3FC0
3FC0
0F00
ENDCHAR

STARTCHAR ntilde
ENCODING 241
SWIDTH 456 0
DWIDTH 15 0
BBX 11 23 2 0
BITMAP
1840
3EC0
6F80
4300
0000
0000
CF80
DFC0
F1E0
E0E0
E060
C060
C060
C060
C060
C060
C060
C060
C060
C060
C060
C060
C060
ENDCHAR

STARTCHAR ograve
ENCODING 242
SWIDTH 456 0
DWIDTH 14 0
BBX 12 24 1 0
BITMAP
3800
1C00
0C00
0600
0300
0000
0000
0F00
3FC0
3FC0
70E0
6060
E070
C030
C030
C030
C030
C030
E070
6060
70E0
3FC0
3FC0
0F00
ENDCHAR

STARTCHAR oacute
ENCODING 243
SWIDTH 456 0
DWIDTH 14 0
BBX 12 24 1 0
BITMAP
01C0
0380
0300
0600
0C00
0000
0000
0F00
3FC0
3FC0
70E0
6060
E070
C030
C030
C030
C030
C030
E070
6060
70E0
3FC0
3FC0
0F00
ENDCHAR

STARTCHAR ocircumflex
ENCODING 244
SWIDTH 456 0
DWIDTH 14 0
BBX 12 24 1 0
BITMAP
0E00
0E00
1B00
1100
3180
0000
0000
0F00
3FC0
3FC0
70E0
6060
E070
C030
C030
C030
C030
C030
E070
6060
70E0
3FC0
3FC0
0F00
ENDCHAR

STARTCHAR otilde
ENCODING 245
SWIDTH 456 0
DWIDTH 14 0
BBX 12 23 1 0
BITMAP
0C20
1F60
37C0
2180
0000
0000
0F00
3FC0
3FC0
70E0
6060
E070
C030
C030
C030
C030
C030
E070
6060
70E0
3FC0
3FC0
0F00
ENDCHAR

STARTCHAR odieresis
ENCODING 246
SWIDTH 456 0
DWIDTH 14 0
BBX 12 23 1 0
BITMAP
39C0
39C0
39C0
0000
0000
0000
0F00
3FC0
3FC0
70E0
6060
E070
C030
C030
C030
C030
C030
E070
6060
70E0
3FC0
3FC0
0F00
ENDCHAR

STARTCHAR divide
ENCODING 247
SWIDTH 479 0
DWIDTH 15 0
BBX 13 16 1 0
BITMAP
0700
0700
0700
0000
0000
0000
0000
FFF8
FFF8
0000
0000
0000
0000
0700
0700
0700
ENDCHAR

STARTCHAR oslash
ENCODING 248
SWIDTH 501 0
DWIDTH 15 0
BBX 13 18 1 0
BITMAP
0F08
1F90
3FF0
70E0
60E0
E0F0
C1B0
C130
C230
C430
C430
C830
F070
7060
70E0
7FC0
BFC0
8F00
ENDCHAR

STARTCHAR ugrave
ENCODING 249
SWIDTH 456 0
DWIDTH 15 0
BBX 11 24 2 0
BITMAP
3800
1C00
0C00
0600
0300
0000
0000
C060
C060
C060
C060
C060
C060
C060
C060
C060
C060
C060
C060
C0E0
E1E0
7FE0
7F60
3C60
ENDCHAR

STARTCHAR uacute
ENCODING 250
SWIDTH 456 0
DWIDTH 15 0
BBX 11 24 2 0
BITMAP
01C0
0380
0300
0600
0C00
0000
0000
C060
C060
C060
C060
C060
C060
C060
C060
C060
C060
C060
C060
C0E0
E1E0
7FE0
7F60
3C60
ENDCHAR

STARTCHAR ucircumflex
ENCODING 251
SWIDTH 456 0
DWIDTH 15 0
BBX 11 24 2 0
BITMAP
0E00
0E00
1B00
1100
3180
0000
0000
C060
C060
C060
C060
C060
C060
C060
C060
C060
C060
C060
C060
C0E0
E1E0
7FE0
7F60
3C60
ENDCHAR

STARTCHAR udieresis
ENCODING 252
SWIDTH 456 0
DWIDTH 15 0
BBX 11 23 2 0
BITMAP
7380
7380
7380
0000
0000
0000
C060
C060
C060
C060
C060
C060
C060
C060
C060
C060
C060
C060
C0E0
E1E0
7FE0
7F60
3C60
ENDCHAR

STARTCHAR yacute
ENCODING 253
SWIDTH 410 0
DWIDTH 14 0
BBX 12 30 1 -6
BITMAP
00E0
01C0
0180
0300
0600
0000
0000
0000
E030
6030
6060
7060
3060
30E0
30C0
38C0
19C0
1980
1D80
0F80
0F00
0F00
0F00
0600
0600
0E00
0C00
5C00
7800
7000
ENDCHAR

STARTCHAR thorn
ENCODING 254
SWIDTH 456 0
DWIDTH 13 0
BBX 11 30 1 -6
BITMAP
C000
C000
C000
C000
C000
C000
C000
CF00
DF80
FFC0
E0C0
E0E0
C060
C060
C060
C060
C060
C060
C060
E0C0
E1C0
FFC0
DF80
CE00
C000
C000
C000
C000
C000
C000
ENDCHAR

STARTCHAR ydieresis
ENCODING 255
SWIDTH 410 0
DWIDTH 14 0
BBX 12 29 1 -6
BITMAP
39C0
39C0
39C0
0000
0000
0000
0000
E030
6030
6060
7060
3060
30E0
30C0
38C0
19C0
1980
1D80
0F80
0F00
0F00
0F00
0600
0600
0E00
0C00
5C00
7800
7000
ENDCHAR
ENDFONT
